<?xml version="1.0" encoding="UTF-8" standalone="no"?>
<svg
   xmlns:dc="http://purl.org/dc/elements/1.1/"
   xmlns:cc="http://creativecommons.org/ns#"
   xmlns:rdf="http://www.w3.org/1999/02/22-rdf-syntax-ns#"
   xmlns:svg="http://www.w3.org/2000/svg"
   xmlns="http://www.w3.org/2000/svg"
   xmlns:sodipodi="http://sodipodi.sourceforge.net/DTD/sodipodi-0.dtd"
   xmlns:inkscape="http://www.inkscape.org/namespaces/inkscape"
   id="svg4560"
   version="1.1"
   viewBox="0 0 134.82687 50.704945"
   height="50.704945mm"
   width="134.82687mm"
   sodipodi:docname="ceph_nautilus_fixed.svg"
   inkscape:version="0.92.4 (5da689c313, 2019-01-14)">
  <sodipodi:namedview
     pagecolor="#ffffff"
     bordercolor="#666666"
     borderopacity="1"
     objecttolerance="10"
     gridtolerance="10"
     guidetolerance="10"
     inkscape:pageopacity="0"
     inkscape:pageshadow="2"
     inkscape:window-width="1920"
     inkscape:window-height="1171"
     id="namedview834"
     showgrid="false"
     inkscape:zoom="1.8524991"
     inkscape:cx="350.48029"
     inkscape:cy="93.717409"
     inkscape:window-x="1920"
     inkscape:window-y="0"
     inkscape:window-maximized="1"
     inkscape:current-layer="text817" />
  <defs
     id="defs4554" />
  <metadata
     id="metadata4557">
    <rdf:RDF>
      <cc:Work
         rdf:about="">
        <dc:format>image/svg+xml</dc:format>
        <dc:type
           rdf:resource="http://purl.org/dc/dcmitype/StillImage" />
        <dc:title></dc:title>
        <cc:license
           rdf:resource="http://creativecommons.org/publicdomain/zero/1.0/" />
      </cc:Work>
      <cc:License
         rdf:about="http://creativecommons.org/publicdomain/zero/1.0/">
        <cc:permits
           rdf:resource="http://creativecommons.org/ns#Reproduction" />
        <cc:permits
           rdf:resource="http://creativecommons.org/ns#Distribution" />
        <cc:permits
           rdf:resource="http://creativecommons.org/ns#DerivativeWorks" />
      </cc:License>
    </rdf:RDF>
  </metadata>
  <path
     style="color:#000000;font-style:normal;font-variant:normal;font-weight:normal;font-stretch:normal;font-size:medium;line-height:normal;font-family:sans-serif;font-variant-ligatures:normal;font-variant-position:normal;font-variant-caps:normal;font-variant-numeric:normal;font-variant-alternates:normal;font-feature-settings:normal;text-indent:0;text-align:start;text-decoration:none;text-decoration-line:none;text-decoration-style:solid;text-decoration-color:#000000;letter-spacing:normal;word-spacing:normal;text-transform:none;writing-mode:lr-tb;direction:ltr;text-orientation:mixed;dominant-baseline:auto;baseline-shift:baseline;text-anchor:start;white-space:normal;shape-padding:0;clip-rule:nonzero;display:inline;overflow:visible;visibility:visible;opacity:1;isolation:auto;mix-blend-mode:normal;color-interpolation:sRGB;color-interpolation-filters:linearRGB;solid-color:#000000;solid-opacity:1;vector-effect:none;fill:#000000;fill-opacity:1;fill-rule:evenodd;stroke:none;stroke-width:0.54316729;stroke-linecap:butt;stroke-linejoin:miter;stroke-miterlimit:4;stroke-dasharray:none;stroke-dashoffset:0;stroke-opacity:1;color-rendering:auto;image-rendering:auto;shape-rendering:auto;text-rendering:auto;enable-background:accumulate"
     d="m 39.154635,9.60257 c -0.0961,-0.21559 -0.19897,-0.42781 -0.30807,-0.63659 l 1.3e-4,-6e-5 c -1.31672,-2.51976 -3.54633,-4.54694 -5.91961,-6.10696 -2.1e-4,-1.3e-4 -2.8e-4,-1.9e-4 -8.5e-4,-2.7e-4 -8.4e-4,-2.6e-4 -10e-4,-0.001 -0.002,-0.001 -5.6229,-3.78238 -13.65479,-3.42115 -18.656682,-1.16913 -5.001889,2.25201 -7.801985,4.71525 -10.194658,8.14386 -1.68e-4,2.6e-4 -5.24e-4,5.3e-4 -7.24e-4,5.8e-4 -1.34e-4,1.8e-4 -9.6e-5,5.3e-4 -3.03e-4,5.7e-4 -4.404722,6.20415 -5.135831,14.37113 -2.676774,21.42043 2.256471,7.90938 8.763572,14.20231 16.444271,17.28228 5.0032,2.00591 11.15151,2.45039 16.8687,2.01749 5.71719,-0.4329 14.08435,-1.9269 14.28188,-3.24675 1.01913,-6.80955 -2.02809,-13.01106 -4.96199,-15.68235 -2.9339,-2.6713 -6.4193,-3.62944 -8.27106,-5.40318 4.28214,-3.49052 5.76273,-9.48267 4.0691,-14.58661 -0.1558,-0.70822 -0.38338,-1.38556 -0.6716,-2.03232 z m -0.50569,0.21406 c 0.27734,0.62104 0.49546,1.26985 0.64312,1.94626 l 0.003,0.0136 0.004,0.0129 c 0.46643,1.40185 0.6836,2.87679 0.66039,4.34636 -0.18784,0.53279 -0.72457,1.68604 -1.31395,2.38471 -0.67723,0.8028 -1.46694,1.6464 -2.48197,2.20168 -1.02005,0.55804 -1.69461,0.72381 -2.79337,0.62594 -1.00652,-0.0896 -1.98526,-0.6421 -2.82444,-2.04411 0.131,-0.31551 0.22059,-0.65188 0.25967,-1.0062 0.27323,-1.44948 -0.13471,-2.82998 -0.94474,-3.95048 0.3844,0.15565 0.75077,0.27987 1.09806,0.37212 1.30225,0.34586 2.34843,0.26404 3.1772,-0.111 1.10503,-0.50005 1.80986,-1.51282 2.23261,-2.67398 0.42275,-1.16118 0.56768,-2.47525 0.55191,-3.6082 -0.007,-0.51223 -0.0453,-0.98447 -0.10758,-1.39179 0.59454,0.70732 1.11681,1.46389 1.53919,2.27033 0.1052,0.20085 0.20419,0.40483 0.29663,0.61184 z m -2.82223,-3.94935 c 0.23556,0.58746 0.62154,1.89174 0.63481,2.84506 0.0155,1.10971 -0.0353,2.32373 -0.49333,3.42664 -0.46025,1.10837 -0.91551,1.6655 -1.93021,2.25504 -0.98512,0.57236 -2.32924,0.67645 -4.26065,-0.16826 -0.003,-10e-4 -0.006,-0.002 -0.009,-0.004 -0.21321,-0.27942 -0.45121,-0.54203 -0.7104,-0.78385 -0.74264,-0.6929 -1.65684,-1.22482 -2.6447,-1.52559 0.37959,-0.40465 0.70448,-0.80217 0.97753,-1.19209 0.89896,-1.2837 1.24447,-2.48414 1.19325,-3.58089 -0.0683,-1.46233 -0.83853,-2.72103 -1.88046,-3.73641 -1.04193,-1.01537 -2.35856,-1.79411 -3.55167,-2.3092 -0.1259,-0.0544 -0.24988,-0.10516 -0.37228,-0.1537 3.47843,-0.11998 7.06971,0.49834 9.83377,2.35844 l 0.002,10e-4 8.4e-4,5.8e-4 c 1.14015,0.74925 2.23862,1.60477 3.21114,2.56644 z m 4.02282,11.7881 c -0.41824,3.23124 -2.00507,6.3031 -4.66663,8.35997 l -0.004,0.004 -0.004,0.004 c -0.25037,0.20959 -0.5106,0.40729 -0.77892,0.59358 -0.34376,0.12348 -1.32325,0.32911 -2.04962,0.24972 -0.7869,-0.086 -1.65317,-0.23047 -2.47361,-0.66864 -0.82452,-0.44036 -1.25723,-0.82865 -1.75814,-1.63659 -0.44162,-0.71221 -0.63126,-1.61194 -0.33072,-2.79317 1.18525,-0.40207 2.2264,-1.25126 2.72751,-2.38243 0.14094,0.22413 0.28525,0.43146 0.43339,0.61817 0.72619,0.91523 1.53276,1.39287 2.36411,1.54904 1.10847,0.20821 2.24589,-0.15614 3.2716,-0.77122 1.02571,-0.61507 1.94566,-1.48203 2.63708,-2.30166 0.24103,-0.28573 0.45217,-0.56298 0.63242,-0.82384 z m 4.42703,17.39974 c 0.92861,2.1297 1.42372,5.00146 1.15883,9.10375 -0.15907,2.46349 -17.20865,5.2893 -27.02285,1.33034 C 10.353961,42.23843 6.830734,37.33136 3.700887,30.12717 2.627792,26.72261 2.117385,23.37134 2.212478,20.28587 c 0.368083,-0.90004 1.158316,-2.70178 2.171245,-3.51703 1.218212,-0.98047 2.616423,-1.98026 4.28653,-2.44567 1.678365,-0.46769 2.739455,-0.4619 4.379281,0.11734 1.485929,0.5249 2.821831,1.74084 3.754011,4.18604 -0.1441,0.9827 -0.11029,1.98611 0.12966,2.94984 0.45099,2.71089 2.50227,4.73619 4.84068,6.01385 4.16623,2.61848 9.8027,1.98938 13.5601,-1.0203 2.75908,2.70568 6.89964,3.79984 8.94258,8.48518 z M 27.912455,5.59547 c 0.19415,0.44609 0.31893,0.93857 0.40611,1.55285 0.19345,1.36316 -0.25139,2.9049 -1.93213,4.65287 -0.0247,0.0252 -0.0469,0.0547 -0.067,0.0845 -0.73846,-0.21296 -1.51591,-0.29718 -2.29216,-0.22261 -1.66289,0.0562 -3.1343,0.69828 -4.31161,1.68808 0.0659,-0.56419 0.0938,-1.09229 0.0859,-1.5854 -0.0284,-1.76522 -0.50753,-3.08669 -1.28068,-4.05001 -1.03087,-1.28443 -2.56863,-1.91686 -4.19349,-2.14735 -1.624851,-0.23049 -3.344092,-0.0631 -4.775828,0.26191 -0.124563,0.0282 -0.245956,0.0579 -0.365782,0.0882 1.053544,-0.90038 2.373221,-1.70527 4.676259,-3.01476 1.714091,-0.7762 3.956971,-1.42063 6.378011,-1.74721 0.75207,0.0307 2.17464,0.21816 3.1267,0.62919 1.16862,0.5045 2.41915,1.13144 3.38555,2.15857 0.54628,0.58062 0.91054,1.07754 1.16016,1.65109 z m 7.62106,20.83234 6e-5,1.2e-4 -0.008,0.007 c 0.002,-0.001 0.004,-0.004 0.005,-0.005 8.4e-4,-5.8e-4 0.002,-10e-4 0.003,-0.002 z m -5.60505,-10.89163 c 0.37142,0.81312 0.51311,1.71878 0.33796,2.65702 -0.10928,0.1269 -0.24022,0.25985 -0.3728,0.35541 -0.29146,0.21004 -0.6277,0.4275 -1.03849,0.54946 -0.41282,0.12257 -0.67763,0.14301 -1.09419,0.067 -0.36145,-0.066 -0.69635,-0.25492 -0.95576,-0.65969 0.0285,-0.0306 0.0549,-0.0627 0.0784,-0.096 0.17914,-0.25375 0.18923,-0.57004 -0.0658,-1.15608 -0.0242,-0.0556 -0.0529,-0.10891 -0.0835,-0.16101 0.32857,0.0775 0.62952,0.082 0.90198,0.0282 0.50726,-0.10015 0.9109,-0.39573 1.21686,-0.75796 0.30595,-0.36223 0.51657,-0.79235 0.64088,-1.17169 0.0339,-0.10348 0.0609,-0.2023 0.0823,-0.29558 0.13307,0.20611 0.2512,0.42 0.35214,0.64096 z m -0.57916,-0.9652 c 0.003,0.2243 -0.0157,0.50422 -0.0868,0.72101 -0.12176,0.37156 -0.28248,0.77392 -0.59605,1.11456 -0.31514,0.34233 -0.56451,0.50089 -1.04537,0.63638 -0.26902,0.0758 -0.56899,0.0919 -0.90629,0.016 -0.1928,-0.31001 -0.49413,-0.55139 -0.83761,-0.68956 0.0516,-0.0562 0.10134,-0.11249 0.14726,-0.16853 0.39189,-0.47835 0.57947,-0.94849 0.6183,-1.39515 0.0518,-0.59553 -0.16071,-1.14117 -0.48408,-1.60079 -0.28649,-0.40718 -0.66058,-0.74874 -1.02322,-1.00499 1.31456,0.13412 2.58562,0.73423 3.54063,1.62526 0.24747,0.23089 0.473,0.48058 0.6732,0.74575 z m 0.87414,3.90786 c -0.26907,1.41389 -1.49931,2.48 -2.88865,2.8567 -0.16408,-0.0581 -0.36775,-0.14694 -0.51895,-0.25384 -0.25691,-0.18166 -0.53207,-0.39772 -0.74594,-0.69955 -0.21492,-0.30334 -0.30326,-0.51324 -0.3501,-0.87187 -0.0355,-0.27197 0.0147,-0.55217 0.2114,-0.83038 0.0264,0.0155 0.0564,0.0307 0.0953,0.0449 0.29157,0.10692 0.57224,-0.0102 0.76072,-0.2011 0.0322,0.0483 0.0652,0.0944 0.0994,0.13744 0.24111,0.3034 0.53061,0.48001 0.84249,0.56196 0.41584,0.10928 0.86563,0.0495 1.28291,-0.0899 0.41727,-0.1393 0.80429,-0.35818 1.10186,-0.57265 0.0381,-0.0274 0.0745,-0.0547 0.10954,-0.0818 z m 3.08063,8.80613 c -1.60941,0.86568 -3.43134,1.35179 -5.25876,1.40931 -5.5e-4,0 -5.5e-4,-2.7e-4 -8.5e-4,-2.7e-4 -0.31028,0.009 -1.50154,-0.18251 -2.20466,-0.56328 -0.70311,-0.38079 -1.44724,-0.84527 -1.97065,-1.55887 -0.52601,-0.71713 -0.70744,-1.2362 -0.70188,-2.16279 0.005,-0.83503 0.37938,-1.74678 1.42998,-2.72861 0.97356,0.43954 2.09891,0.44013 3.12335,0.10767 -0.0358,0.15351 -0.0652,0.30359 -0.0869,0.44965 -0.14013,0.93997 0.003,1.72676 0.3362,2.37727 0.4447,0.86733 1.22119,1.48148 2.08016,1.89851 0.85897,0.41705 1.80411,0.64051 2.6075,0.72831 0.22996,0.0252 0.44567,0.0386 0.64663,0.0432 z m -6.96823,-13.53032 c 0.15415,0.3151 0.21173,0.60869 0.21065,1.04221 -0.001,0.49122 -0.1862,1.01528 -0.70091,1.56096 -0.17717,-0.0676 -0.36434,-0.10863 -0.55319,-0.11693 -0.39861,-0.0175 -0.78778,0.0958 -1.14023,0.29578 0.14959,-0.59139 0.12155,-1.09669 -0.031,-1.523 -0.21168,-0.59151 -0.65852,-1.02386 -1.17538,-1.32725 -0.51687,-0.30338 -1.10577,-0.48023 -1.61514,-0.56242 -0.10844,-0.0175 -0.21186,-0.03 -0.31138,-0.0394 0.89549,-0.52819 1.91807,-0.85105 3.03342,-0.88757 l 0.009,-5.3e-4 0.01,-5.8e-4 c 0.1666,-0.0164 0.33362,-0.0241 0.5006,-0.0244 0.16663,0.0619 0.33185,0.13631 0.4656,0.22367 0.39584,0.25854 0.81497,0.57047 1.11042,1.03134 0.0742,0.11579 0.13629,0.22327 0.18767,0.3283 z m 0.12582,3.92591 c 0.0365,0.19285 0.0189,0.35277 -0.0323,0.42536 -0.055,0.0778 -0.13559,0.0808 -0.3988,0.10394 -0.13404,0.0117 -0.2041,0.14835 -0.21511,0.23696 -0.009,0.0697 -0.0104,0.15067 0.098,0.22221 -0.19272,0.2752 -0.26541,0.55618 -0.2517,0.83061 0.0183,0.36679 0.18984,0.71682 0.42021,1.01937 0.23037,0.30254 0.52038,0.55948 0.78268,0.74496 0.0714,0.0505 0.14015,0.0952 0.20553,0.1346 -1.18753,0.24347 -2.45211,-0.0199 -3.31061,-0.99745 l -0.007,-0.008 -0.008,-0.007 c -0.48643,-0.46956 -0.62623,-1.00862 -0.55886,-1.54979 0.0674,-0.54119 0.36051,-1.07922 0.75711,-1.46614 0.39659,-0.3869 0.88604,-0.61262 1.32481,-0.59332 0.42926,0.0189 0.84552,0.2562 1.19436,0.90439 z m -2.43792,-2.63481 c 0.18761,0.41051 0.24905,0.9043 0.0886,1.51434 -0.2009,0.11864 -0.38958,0.26484 -0.5603,0.43139 -0.26683,0.26032 -0.49341,0.57202 -0.65657,0.91448 -0.10496,-0.13759 -0.21186,-0.26447 -0.32054,-0.37948 -0.47489,-0.50256 -0.98169,-0.79566 -1.49124,-0.93233 -0.67941,-0.18221 -1.35435,-0.0849 -1.95213,0.14391 -0.59777,0.2288 -1.12187,0.58931 -1.50933,0.9428 -0.0243,0.0222 -0.0465,0.044 -0.0697,0.0661 0.23593,-0.85674 0.6136,-1.67994 1.1122,-2.417 0.50397,-0.74499 1.12818,-1.40002 1.84991,-1.91665 0.29413,-0.0474 0.6798,-0.0784 0.98424,-0.0293 0.49891,0.0805 1.04381,0.20229 1.53408,0.51865 0.4927,0.31792 0.73781,0.58957 0.99076,1.14312 z m -4.81273,-5.77499 c 0.45762,1.02667 0.63681,2.36855 0.38825,4.14522 -0.002,0.0122 -0.002,0.025 -0.003,0.0376 -0.52952,0.46372 -0.99699,0.99838 -1.39171,1.58187 -0.68705,1.01564 -1.15989,2.18038 -1.36758,3.3827 -0.13874,-0.33631 -0.28473,-0.65263 -0.43788,-0.94887 -0.87937,-1.70099 -1.9856,-2.75515 -3.206628,-3.32075 C 11.56443,13.3944 9.755103,13.51608 8.05446,14.06993 6.35382,14.62384 4.752808,15.60943 3.509065,16.61046 3.127371,16.91767 2.780039,17.22434 2.473323,17.52128 2.871028,15.07471 3.708558,12.86375 5.012417,11.01617 5.794717,9.93759 6.404966,9.09159 6.947397,8.38163 7.603295,7.79622 9.019899,6.58534 10.206344,6.31601 c 1.402342,-0.31834 2.960783,-0.57974 4.524378,-0.28833 1.571323,0.29285 2.441493,0.72769 3.553493,1.87204 0.37111,0.38192 0.68721,0.83325 0.92693,1.37102 z m 3.66598,8.67555 c -0.11966,0.26087 -0.20282,0.53879 -0.23847,0.82513 -0.0352,0.28292 -0.0202,0.57472 0.0519,0.8611 -0.21219,0.0197 -0.41572,0.0451 -0.60836,0.0774 -0.98954,0.16584 -1.7258,0.49171 -2.25843,0.91602 -0.71015,0.56575 -1.04977,1.29825 -1.16315,2.03416 -0.0921,0.5978 -0.0352,1.19886 0.0942,1.72693 -0.64423,-0.8539 -1.10279,-1.82563 -1.28064,-2.90824 l -0.002,-0.0107 -0.002,-0.0105 c -0.2384,-0.95278 -0.25788,-1.95689 -0.0897,-2.93813 0.13514,-0.26386 0.34788,-0.60021 0.58647,-0.81789 0.37951,-0.34624 0.82563,-0.70433 1.41923,-0.90447 0.59654,-0.20114 0.99884,-0.23417 1.66814,-0.10694 0.62554,0.11889 1.25177,0.4738 1.82294,1.25616 z m 1.66693,3.70898 c -0.15979,0.15389 -0.30738,0.30699 -0.44026,0.45887 -0.69991,0.79996 -1.03619,1.56957 -1.10762,2.28877 -0.0952,0.95892 0.28009,1.81534 0.85318,2.52455 0.55368,0.6852 1.29283,1.23564 1.98966,1.62283 -1.32908,-0.21987 -2.61532,-0.68445 -3.77462,-1.41471 l -0.007,-0.004 -0.008,-0.004 c -0.76355,-0.41668 -1.48848,-0.91301 -2.12944,-1.48467 -0.27283,-0.29108 -0.65734,-0.79388 -0.79992,-1.2317 -0.19218,-0.5902 -0.35389,-1.25407 -0.20574,-1.96828 0.14887,-0.71773 0.38408,-1.13891 1.01496,-1.72823 0.56987,-0.53238 1.42928,-0.93106 2.77187,-1.03897 0.10424,0.38236 0.31267,0.75346 0.64595,1.07878 0.35093,0.39775 0.75795,0.6945 1.19696,0.90118 z"
     id="path5394"
     inkscape:connector-curvature="0" />
  <g
     aria-label="NAUTILUS"
     transform="scale(1.0141652,0.98603266)"
     style="font-style:normal;font-weight:normal;font-size:18.38828278px;line-height:11.49267673px;font-family:sans-serif;letter-spacing:0px;word-spacing:0px;fill:#000000;fill-opacity:1;stroke:none;stroke-width:0.45970702px;stroke-linecap:butt;stroke-linejoin:miter;stroke-opacity:1"
     id="text817">
    <path
       d="m 59.686869,11.933542 v 13.07292 H 57.94501 L 51.363657,14.923434 v 10.083028 h -1.73288 v -13.07292 h 1.73288 l 6.608289,10.109964 V 11.933542 Z"
       style="font-style:normal;font-variant:normal;font-weight:normal;font-stretch:normal;font-family:'Titillium Web ExtraLight';-inkscape-font-specification:'Titillium Web ExtraLight, ';fill:#000000;fill-opacity:1;stroke-width:0.45970702px"
       id="path917" />
    <path
       d="m 61.653194,25.006462 4.983152,-13.07292 h 1.517393 l 5.00111,13.07292 h -1.777773 l -1.248033,-3.420867 h -5.468 l -1.239055,3.420867 z m 3.528611,-4.839494 h 4.435455 l -2.217728,-6.096506 z"
       style="font-style:normal;font-variant:normal;font-weight:normal;font-stretch:normal;font-family:'Titillium Web ExtraLight';-inkscape-font-specification:'Titillium Web ExtraLight, ';fill:#000000;fill-opacity:1;stroke-width:0.45970702px"
       id="path919" />
    <path
       d="m 82.232268,11.933542 h 1.723901 v 8.843974 q 0,2.208749 -1.418627,3.313123 -1.418627,1.095396 -3.322102,1.095396 -2.00224,0 -3.366995,-1.095396 -1.355777,-1.104374 -1.355777,-3.313123 v -8.843974 h 1.714923 v 8.843974 q 0,1.53535 0.826036,2.2716 0.835015,0.727271 2.181813,0.727271 1.364755,0 2.190792,-0.727271 0.826036,-0.73625 0.826036,-2.2716 z"
       style="font-style:normal;font-variant:normal;font-weight:normal;font-stretch:normal;font-family:'Titillium Web ExtraLight';-inkscape-font-specification:'Titillium Web ExtraLight, ';fill:#000000;fill-opacity:1;stroke-width:0.45970702px"
       id="path921" />
    <path
       d="M 85.608242,13.35217 V 11.933542 H 95.709227 V 13.35217 H 91.507218 V 25.006462 H 89.801273 V 13.35217 Z"
       style="font-style:normal;font-variant:normal;font-weight:normal;font-stretch:normal;font-family:'Titillium Web ExtraLight';-inkscape-font-specification:'Titillium Web ExtraLight, ';fill:#000000;fill-opacity:1;stroke-width:0.45970702px"
       id="path923" />
    <path
       d="m 99.507196,11.933542 v 13.07292 h -1.732881 v -13.07292 z"
       style="font-style:normal;font-variant:normal;font-weight:normal;font-stretch:normal;font-family:'Titillium Web ExtraLight';-inkscape-font-specification:'Titillium Web ExtraLight, ';fill:#000000;fill-opacity:1;stroke-width:0.45970702px"
       id="path925" />
    <path
       d="m 110.57788,23.596813 v 1.409649 h -7.92815 v -13.07292 h 1.73288 v 11.663271 z"
       style="font-style:normal;font-variant:normal;font-weight:normal;font-stretch:normal;font-family:'Titillium Web ExtraLight';-inkscape-font-specification:'Titillium Web ExtraLight, ';fill:#000000;fill-opacity:1;stroke-width:0.45970702px"
       id="path927" />
    <path
       d="m 119.78998,11.933542 h 1.7239 v 8.843974 q 0,2.208749 -1.41863,3.313123 -1.41863,1.095396 -3.3221,1.095396 -2.00224,0 -3.367,-1.095396 -1.35577,-1.104374 -1.35577,-3.313123 v -8.843974 h 1.71492 v 8.843974 q 0,1.53535 0.82604,2.2716 0.83501,0.727271 2.18181,0.727271 1.36475,0 2.19079,-0.727271 0.82604,-0.73625 0.82604,-2.2716 z"
       style="font-style:normal;font-variant:normal;font-weight:normal;font-stretch:normal;font-family:'Titillium Web ExtraLight';-inkscape-font-specification:'Titillium Web ExtraLight, ';fill:#000000;fill-opacity:1;stroke-width:0.45970702px"
       id="path929" />
    <path
       d="m 131.20184,21.702318 q 0,-0.915823 -0.6285,-1.454542 -0.62851,-0.53872 -2.47811,-1.077439 -1.93939,-0.565655 -3.08866,-1.445563 -1.14927,-0.888887 -1.14927,-2.415258 0,-1.526371 1.21212,-2.540959 1.2211,-1.014588 3.23232,-1.014588 2.20875,0 3.40291,1.212118 1.20314,1.212119 1.20314,2.73849 h -1.72391 q 0,-1.095396 -0.70931,-1.813688 -0.70931,-0.718292 -2.17283,-0.718292 -1.38272,0 -2.04714,0.610548 -0.66442,0.60157 -0.66442,1.508414 0,0.826036 0.7183,1.373734 0.72727,0.547698 2.34342,0.99663 2.21773,0.628506 3.25028,1.562286 1.04152,0.93378 1.04152,2.460151 0,1.598201 -1.24803,2.549938 -1.24803,0.951737 -3.31313,0.951737 -1.21211,0 -2.34342,-0.448933 -1.13131,-0.448932 -1.86756,-1.32884 -0.72727,-0.888887 -0.72727,-2.190792 h 1.7239 q 0,1.33782 0.97867,1.948368 0.97867,0.610549 2.23568,0.610549 1.35578,0 2.08305,-0.556677 0.73625,-0.565655 0.73625,-1.517392 z"
       style="font-style:normal;font-variant:normal;font-weight:normal;font-stretch:normal;font-family:'Titillium Web ExtraLight';-inkscape-font-specification:'Titillium Web ExtraLight, ';fill:#000000;fill-opacity:1;stroke-width:0.45970702px"
       id="path931" />
  </g>
  <g
     id="g1509"
     transform="translate(-84.277685,-164.65022)">
    <g
       transform="matrix(0.08385053,0,0,0.08385053,133.62031,178.71202)"
       id="g865">
      <path
         inkscape:connector-curvature="0"
         d="m 123.48438,-46.545326 c -4.86675,-2.589375 -7.64651,-5.507875 -8.26176,-8.67675 -0.59325,-3.068375 0.77538,-6.481 4.1885,-10.436125 8.15638,-9.357625 12.64888,-21.378875 12.64888,-33.851375 0,-28.442504 -23.141,-51.586254 -51.586375,-51.586254 -0.04637,0 -0.2275,0.002 -0.2275,0.002 0,0 -0.185625,-0.002 -0.234375,-0.002 -28.446375,0 -51.584,23.14375 -51.584,51.586254 0,12.4725 4.491625,24.49375 12.650875,33.855375 3.4385,3.981375 4.774375,7.255875 4.204125,10.296375 -0.591875,3.1655 -3.378,6.1245 -8.287625,8.8085 -7.527875,-6.274375 -14.184625,-14.657125 -18.291,-23.064875 -2.227125,-4.562875 -3.941375,-9.381625 -5.09725,-14.321625 -1.189888,-5.0775 -1.786075,-10.3175 -1.786075,-15.57375 0,-9.198754 1.799825,-18.133754 5.35695,-26.547504 3.438,-8.1175 8.352,-15.4125 14.61625,-21.67125 6.25725,-6.2625 13.55175,-11.17625 21.671875,-14.6125 8.412,-3.5575 17.34225,-5.36 26.545875,-5.36 0.04875,0 0.2275,0 0.2275,0 0,0 0.188,0 0.234375,0 9.203625,0 18.13525,1.8025 26.548375,5.36 8.11762,3.43625 15.41162,8.35 21.67175,14.6125 6.25875,6.25875 11.1775,13.55375 14.61375,21.67125 3.5575,8.41375 5.36125,17.34875 5.36125,26.547504 0,5.25625 -0.6025,10.49625 -1.78875,15.57375 -1.155,4.94 -2.87,9.75875 -5.1,14.321625 -4.10625,8.411125 -10.7575,16.793 -18.29562,23.068875"
         id="path3043"
         style="fill:#f0424d;fill-opacity:1;fill-rule:nonzero;stroke:none;stroke-width:0.125" />
      <path
         inkscape:connector-curvature="0"
         d="m 98.32225,-33.787076 c -0.7925,-0.4985 -3.5,-2.512625 -6.139125,-6.168875 -2.53175,-3.49375 -5.51075,-9.289625 -5.355,-17.051375 0.09762,-4.671375 1.034125,-9.220125 2.789125,-13.514625 1.742125,-4.257625 4.240625,-8.158875 7.42325,-11.591375 l 0.0195,-0.02625 c 0.234375,-0.2725 0.466375,-0.54375 0.703125,-0.8125 1.20125,-1.39375 2.442495,-2.8325 3.432625,-4.51625 1.22075,-2.07 2.10937,-4.245 2.63775,-6.47 0.813,-3.43625 0.86087,-7.083754 0.13325,-10.543754 -0.67138,-3.18125 -2.02388,-6.26375 -3.9125,-8.92125 -1.829625,-2.575 -4.2125,-4.82125 -6.894625,-6.49375 -2.795375,-1.74625 -6.00675,-2.915 -9.27775,-3.37875 -1.1075,-0.15875 -2.248625,-0.24 -3.395,-0.24 -0.07863,0 -0.166625,0 -0.245625,0 -0.07862,0 -0.16025,0 -0.24375,0 -1.144,0 -2.2875,0.0812 -3.3915,0.24 -3.269125,0.46375 -6.48,1.6325 -9.278375,3.37875 -2.681625,1.6725 -5.069375,3.91875 -6.8975,6.49375 -1.888125,2.6575 -3.234375,5.74 -3.911625,8.92125 -0.7255,3.46 -0.681625,7.107504 0.13725,10.543754 0.526375,2.225 1.415,4.4 2.63325,6.47 0.995125,1.68375 2.2345,3.1225 3.436125,4.51625 0.23625,0.26875 0.46625,0.54 0.705,0.8125 l 0.01425,0.02625 c 3.188,3.4325 5.684,7.33375 7.42625,11.591375 1.753875,4.2945 2.693875,8.84325 2.786625,13.514625 0.15775,7.76175 -2.82175,13.557625 -5.350625,17.051375 -2.6445,3.65625 -5.349625,5.670375 -6.143,6.168875 -1.327625,-0.355 -2.651875,-0.753875 -3.953625,-1.189875 -3.9185,-1.314 -7.734875,-2.995125 -11.361375,-5.007875 6.234375,-3.354 10.19675,-9.901875 10.19675,-17.038125 0,-4.722125 -1.835375,-9.251875 -5.454125,-13.457 -0.05363,-0.064 -0.109375,-0.11575 -0.150875,-0.15775 -0.0073,-0.01062 -0.019,-0.017 -0.02775,-0.02875 -0.3555,-0.3955 -0.7075,-0.78175 -1.05375,-1.15775 -1.0395,-1.141625 -2.024875,-2.220375 -2.90475,-3.401625 -3.28325,-4.385 -5.6885,-9.5275 -6.958,-14.86875 -1.379875,-5.8075 -1.457125,-11.967504 -0.224625,-17.813754 1.13425,-5.39 3.42675,-10.6175 6.621125,-15.115 3.09025,-4.35125 7.118125,-8.14375 11.646875,-10.9675 4.744625,-2.96 10.183125,-4.93875 15.725625,-5.72875 1.877,-0.27 3.799875,-0.40125 5.72075,-0.40125 0.081,0 0.2695,0 0.2695,0 0.07913,0 0.162125,0 0.243125,0 1.921375,0 3.849625,0.13125 5.724125,0.40125 5.5445,0.79 10.98,2.76875 15.725125,5.72875 4.52875,2.82375 8.55812,6.61625 11.64887,10.9675 3.19238,4.4975 5.48488,9.725 6.62363,15.115 1.228,5.84625 1.14887,12.006254 -0.22713,17.813754 -1.27287,5.34125 -3.67525,10.48375 -6.96287,14.86875 -0.88138,1.18125 -1.86275,2.26 -2.90625,3.401625 -0.34175,0.376 -0.69238,0.76225 -1.04875,1.15775 -0.0122,0.0092 -0.0205,0.01812 -0.0327,0.02875 -0.0415,0.042 -0.10013,0.09625 -0.15037,0.166125 -3.668,4.389625 -5.45263,8.7905 -5.45263,13.448625 0,7.13625 3.96238,13.684125 10.20363,17.038125 -3.628,2.01275 -7.44488,3.693875 -11.36338,5.007875 -1.30125,0.436 -2.630875,0.834875 -3.9575,1.189875"
         id="path3045"
         style="fill:#f0424d;fill-opacity:1;fill-rule:nonzero;stroke:none;stroke-width:0.125" />
      <path
         inkscape:connector-curvature="0"
         d="m 80.24125,-85.397076 c -7.421875,0 -13.463375,-6.04 -13.463375,-13.46375 0,-7.425004 6.0415,-13.465004 13.463375,-13.465004 7.421875,0 13.460375,6.04 13.460375,13.465004 0,7.42375 -6.0385,13.46375 -13.460375,13.46375"
         id="path3047"
         style="fill:#f0424d;fill-opacity:1;fill-rule:nonzero;stroke:none;stroke-width:0.125" />
    </g>
    <g
       style="fill:#000000"
       transform="matrix(0.08957475,0,0,0.08957475,147.87493,168.48554)"
       id="g871">
      <path
         inkscape:connector-curvature="0"
         d="m 34.961,28.012799 c 0,8.86025 -0.7935,11.31 -2.92775,13.4477 -1.26475,1.265137 -3.24375,2.133787 -6.963,2.133787 H 12.020025 c -4.1923875,0 -6.7207125,-0.7124 -8.4633875,-2.450187 C 0.791015,38.374049 0,35.051799 0,22.240299 0,9.426799 0.791015,6.103049 3.5566375,3.336424 c 1.742675,-1.73975 4.271,-2.449625 8.4633875,-2.449625 h 12.9736 c 3.872625,0 5.612375,0.787625 6.958,2.13475 2.05525,2.055125 2.848625,4.902875 2.848625,12.888625 H 26.813 C 26.652875,10.374049 26.337375,9.426799 25.861375,8.951674 25.38575,8.478049 24.754375,8.240299 22.9355,8.240299 h -9.887125 c -2.450725,0 -3.083525,0.23775 -3.6362625,0.7915 -0.7910125,0.788625 -1.1875,2.2925 -1.1875,13.2085 0,10.912625 0.3964875,12.4165 1.1875,13.2075 0.5527375,0.55375 1.1855375,0.7915 3.6362625,0.7915 h 9.964375 c 1.741625,0 2.535625,-0.15775 3.085375,-0.711375 0.55475,-0.55525 0.872125,-2.13775 0.872125,-7.515125 H 34.961"
         id="path3049"
         style="fill:#000000;fill-opacity:1;fill-rule:nonzero;stroke:none;stroke-width:0.125" />
      <path
         inkscape:connector-curvature="0"
         d="m 48.881375,18.362799 h 19.456 c 0,-7.19625 -0.476,-8.77875 -1.183625,-9.491125 -0.478,-0.473625 -1.1875,-0.788625 -3.637625,-0.788625 h -9.811 c -2.45075,0 -3.0835,0.237375 -3.717375,0.868625 -0.712375,0.713875 -1.025375,2.133875 -1.106375,9.411125 z m 0,6.5665 c 0.081,8.38225 0.55225,10.043375 1.1875,10.67625 0.63375,0.63375 1.1855,0.7925 3.63625,0.7925 h 11.07325 c 1.82075,0 2.375375,-0.3165 2.851,-0.7925 0.549875,-0.55375 0.708,-1.5025 0.870125,-5.298875 h 7.985375 c -0.15725,6.642625 -0.791,9.016125 -2.92775,11.153825 -1.34325,1.344725 -3.162125,2.133787 -6.958,2.133787 H 52.75825 c -4.192875,0 -6.723625,-0.7124 -8.463875,-2.450187 -2.7705,-2.77005 -3.556625,-6.0923 -3.556625,-18.9038 0,-12.8135 0.786125,-16.13725 3.556625,-18.903875 1.74025,-1.73975 4.271,-2.449625 8.463875,-2.449625 h 11.704625 c 4.194375,0 6.881375,0.787625 8.465875,2.370125 2.765125,2.7685 3.556125,6.09225 3.556125,18.588375 v 2.13525 c 0,0.629875 -0.236375,0.94875 -0.95075,0.94875 h -26.65275"
         id="path3051"
         style="fill:#000000;fill-opacity:1;fill-rule:nonzero;stroke:none;stroke-width:0.125" />
      <path
         inkscape:connector-curvature="0"
         d="m 108.68112,35.290549 c -0.71037,0.711 -1.74312,1.027375 -4.34812,1.027375 h -6.173375 c -2.53175,0 -4.731375,-0.713875 -7.751375,-2.25 -0.184125,-0.09375 -0.359875,-0.181125 -0.55275,-0.27875 V 10.532799 c 3.165,-1.581125 5.378375,-2.371125 7.99075,-2.371125 h 6.48675 c 2.605,0 3.63775,0.316375 4.34812,1.027375 1.18513,1.185 1.5025,3.4775 1.5025,13.05125 0,9.57275 -0.31737,11.86275 -1.5025,13.05025 z m -2.37687,-34.48775 h -5.76913 c -3.561995,0 -5.301245,0.793875 -10.67962,5.222625 V 0.886799 h -8.224625 v 52.149875 c 2.962375,0 8.224625,0 8.224625,0 v -14.5025 c 5.378375,4.347712 7.117625,5.138725 10.67963,5.138725 h 5.76912 c 4.59225,0 6.88475,-0.791013 8.7035,-2.607413 2.29163,-2.294937 3.401,-5.537562 3.401,-18.825187 0,-13.288625 -1.10937,-16.53375 -3.401,-18.82475 -1.81875,-1.818875 -4.11125,-2.61275 -8.7035,-2.61275"
         id="path3053"
         style="fill:#000000;fill-opacity:1;fill-rule:nonzero;stroke:none;stroke-width:0.125" />
      <path
         inkscape:connector-curvature="0"
         d="m 157.95875,3.256924 c -1.5825,-1.5825 -3.6375,-2.454125 -7.35625,-2.454125 h -6.72125 c -3.56,0 -5.29875,0.793875 -10.68,5.222625 v -16.27875 c -2.5525,-1.401375 -5.2175,-2.42875 -8.16625,-3.061125 -0.0212,10e-4 -0.037,0.01375 -0.0589,0.021 v 56.887737 h 8.22512 V 10.532799 c 0.6025,-0.30125 1.165,-0.5635 1.7075,-0.807125 2.30875,-1.036625 4.16875,-1.564 6.28125,-1.564 h 5.5375 c 2.7675,0 3.55875,0.316375 4.42875,1.1875 0.79125,0.79 1.10625,2.05375 1.10625,4.111375 v 30.133737 h 8.23 V 12.906799 c 0,-5.932625 -0.8725,-7.98875 -2.53375,-9.649875"
         id="path3055"
         style="fill:#000000;fill-opacity:1;fill-rule:nonzero;stroke:none;stroke-width:0.125" />
    </g>
  </g>
</svg>
